<svg width="460" height="410" viewBox="0 0 460 410" fill="none" xmlns="http://www.w3.org/2000/svg">
<path d="M185.309 312.5C203.041 309.174 212.934 304.567 226.809 289C240.309 302.5 248.259 309.977 267.809 312.5C262.7 323.117 258.773 327.355 247.309 331H205.809C195.271 327.446 191.204 322.784 185.309 312.5Z" fill="#0E141A"/>
<path d="M246.309 233H205.809L226.809 243.5L246.309 233Z" fill="#0E141A"/>
<path d="M199.309 217C201.809 219 254.809 218 254.809 218L256.809 163C266.814 155.329 273.766 151.236 287.809 149.5C299.047 150.284 299.432 153.857 300.304 161.95L300.309 162C298.069 169.402 295.998 170.104 287.809 172.5C280.439 168.49 278.248 170.487 274.309 171L272.309 230.5L262.309 238L235.309 254V275.5C264.809 307.5 287.809 308.5 312.309 275.5C320.672 262.736 326.341 253.041 334.309 239.5C335.034 193.686 335.415 168.098 332.309 137C323.378 112.222 313.548 104.202 287.809 100H162.309C137.98 104.874 128.842 112.936 120.809 137C119.899 176.559 120.185 199.419 122.809 242C125.977 252.241 126.771 260.048 139.809 275.5C165.035 305.641 182.601 306.082 217.309 275.5C218.244 266.81 218.017 262.174 217.309 254C208.752 249.727 204.058 246.754 196.309 238C190.63 237.019 187.683 235.41 182.809 230.5L181.309 169.5C175.309 167.5 173.809 172.5 166.809 172.5C159.879 170.181 157.017 168.562 154.809 162C157.397 152.481 160.82 149.783 170.309 149.5C181.134 150.973 187.009 152.951 196.809 160.5C196.809 160.5 196.809 215 199.309 217Z" fill="#0E141A"/>
<path d="M185.309 312.5C203.041 309.174 212.934 304.567 226.809 289C240.309 302.5 248.259 309.977 267.809 312.5C262.7 323.117 258.773 327.355 247.309 331H205.809C195.271 327.446 191.204 322.784 185.309 312.5Z" stroke="#0E141A" stroke-width="4"/>
<path d="M246.309 233H205.809L226.809 243.5L246.309 233Z" stroke="#0E141A" stroke-width="4"/>
<path d="M199.309 217C201.809 219 254.809 218 254.809 218L256.809 163C266.814 155.329 273.766 151.236 287.809 149.5C299.047 150.284 299.432 153.857 300.304 161.95L300.309 162C298.069 169.402 295.998 170.104 287.809 172.5C280.439 168.49 278.248 170.487 274.309 171L272.309 230.5L262.309 238L235.309 254V275.5C264.809 307.5 287.809 308.5 312.309 275.5C320.672 262.736 326.341 253.041 334.309 239.5C335.034 193.686 335.415 168.098 332.309 137C323.378 112.222 313.548 104.202 287.809 100H162.309C137.98 104.874 128.842 112.936 120.809 137C119.899 176.559 120.185 199.419 122.809 242C125.977 252.241 126.771 260.048 139.809 275.5C165.035 305.641 182.601 306.082 217.309 275.5C218.244 266.81 218.017 262.174 217.309 254C208.752 249.727 204.058 246.754 196.309 238C190.63 237.019 187.683 235.41 182.809 230.5L181.309 169.5C175.309 167.5 173.809 172.5 166.809 172.5C159.879 170.181 157.017 168.562 154.809 162C157.397 152.481 160.82 149.783 170.309 149.5C181.134 150.973 187.009 152.951 196.809 160.5C196.809 160.5 196.809 215 199.309 217Z" stroke="#0E141A" stroke-width="4"/>
<path d="M101.809 204C101.809 201.5 103.309 183 101.809 183L5.30906 270C3.22044 279.418 2.27288 281.659 13.3089 282L101.809 204Z" fill="#FCE203" stroke="#0E141A" stroke-width="8"/>
<path d="M355.476 202C355.476 199.5 353.976 181 355.476 181L451.976 268C454.064 277.418 455.012 279.659 443.976 280L355.476 202Z" fill="#FCE203" stroke="#0E141A" stroke-width="8"/>
<path d="M240.809 69.5C240.809 69.5 228.809 78.5 226.809 78.5C224.809 78.5 214.809 69.5 214.809 69.5V17.5C214.809 17.5 224.309 7 226.809 7C229.309 7 240.809 17.5 240.809 17.5V69.5Z" fill="#FCE203" stroke="#0E141A" stroke-width="14"/>
<path d="M184.646 38.3279C190.515 51.0652 186.825 66.7466 184.646 73.7267C182.468 80.7069 145.601 57.972 126.37 30.3507C126.37 30.3507 123.102 13.3991 120.924 11.4047C118.745 9.41044 148.169 8.52228 162.316 15.8919C173.57 21.7541 179.614 27.4066 184.646 38.3279Z" fill="#55B35C" stroke="#0E141A" stroke-width="14"/>
<path d="M270.972 38.3279C265.103 51.0652 268.793 66.7466 270.972 73.7267C273.151 80.7069 310.017 57.972 329.248 30.3507C329.248 30.3507 332.516 13.3991 334.694 11.4047C336.873 9.41044 307.45 8.52228 293.302 15.8919C282.048 21.7541 276.004 27.4066 270.972 38.3279Z" fill="#55B35C" stroke="#0E141A" stroke-width="14"/>
<path d="M8.80902 150C14.8091 139 9.60476 122.029 13.3091 121C22.3091 118.5 58.8091 104.5 58.8091 109.5C58.8089 129.631 1.71796 163 8.80902 150Z" fill="#55B35C"/>
<path d="M100.809 153.5V136.5C100.809 136.5 102.809 118 102.809 115.5C102.809 113 76.8091 133.5 76.8091 133.5C76.8091 133.5 11.8091 196.5 8.80902 201.5C5.80893 206.5 4.30894 218.5 8.80902 221C13.3091 223.5 21.8091 224 26.3091 221C30.8091 218 100.809 157.5 100.809 153.5Z" fill="#55B35C"/>
<path d="M102.809 269C102.809 265 100.809 251.5 100.809 251.5V227.5C100.809 225 78.8091 247.5 78.8091 247.5C78.8091 247.5 14.8092 313 11.8091 318C8.80899 323 7.30901 342 11.8091 344.5C16.3092 347 26.3091 339.5 30.8091 336.5C35.3091 333.5 102.809 273 102.809 269Z" fill="#55B35C"/>
<path d="M8.80902 150C14.8091 139 9.60476 122.029 13.3091 121C22.3091 118.5 58.8091 104.5 58.8091 109.5C58.8089 129.631 1.71796 163 8.80902 150Z" stroke="#0E141A" stroke-width="11"/>
<path d="M100.809 153.5V136.5C100.809 136.5 102.809 118 102.809 115.5C102.809 113 76.8091 133.5 76.8091 133.5C76.8091 133.5 11.8091 196.5 8.80902 201.5C5.80893 206.5 4.30894 218.5 8.80902 221C13.3091 223.5 21.8091 224 26.3091 221C30.8091 218 100.809 157.5 100.809 153.5Z" stroke="#0E141A" stroke-width="11"/>
<path d="M102.809 269C102.809 265 100.809 251.5 100.809 251.5V227.5C100.809 225 78.8091 247.5 78.8091 247.5C78.8091 247.5 14.8092 313 11.8091 318C8.80899 323 7.30901 342 11.8091 344.5C16.3092 347 26.3091 339.5 30.8091 336.5C35.3091 333.5 102.809 273 102.809 269Z" stroke="#0E141A" stroke-width="11"/>
<path d="M435.809 154.5C429.809 143.5 451.809 116 446.809 118.5C438.454 122.677 397.309 117.5 387.809 113C369.616 104.382 442.9 167.5 435.809 154.5Z" fill="#55B35C"/>
<path d="M354.309 154.5C351.809 152.071 351.809 133.5 351.809 133.5C351.809 133.5 347.309 110.43 351.809 113C356.309 115.57 375.809 130.071 375.809 130.071C375.809 130.071 443.809 190 446.809 195C449.809 200 457.309 211.5 451.809 217.5C446.309 223.5 436.809 224.5 432.309 221.5C427.809 218.5 356.809 156.93 354.309 154.5Z" fill="#55B35C"/>
<path d="M349.809 265.571C349.809 261.571 351.809 248.071 351.809 248.071V224.071C351.809 221.57 373.809 244.071 373.809 244.071C373.809 244.071 437.809 309.571 440.809 314.571C443.809 319.571 445.309 338.571 440.809 341.071C436.309 343.571 426.309 336.071 421.809 333.071C417.309 330.071 349.809 269.571 349.809 265.571Z" fill="#55B35C"/>
<path d="M435.809 154.5C429.809 143.5 451.809 116 446.809 118.5C438.454 122.677 397.309 117.5 387.809 113C369.616 104.382 442.9 167.5 435.809 154.5Z" stroke="#0E141A" stroke-width="11"/>
<path d="M354.309 154.5C351.809 152.071 351.809 133.5 351.809 133.5C351.809 133.5 347.309 110.43 351.809 113C356.309 115.57 375.809 130.071 375.809 130.071C375.809 130.071 443.809 190 446.809 195C449.809 200 457.309 211.5 451.809 217.5C446.309 223.5 436.809 224.5 432.309 221.5C427.809 218.5 356.809 156.93 354.309 154.5Z" stroke="#0E141A" stroke-width="11"/>
<path d="M349.809 265.571C349.809 261.571 351.809 248.071 351.809 248.071V224.071C351.809 221.57 373.809 244.071 373.809 244.071C373.809 244.071 437.809 309.571 440.809 314.571C443.809 319.571 445.309 338.571 440.809 341.071C436.309 343.571 426.309 336.071 421.809 333.071C417.309 330.071 349.809 269.571 349.809 265.571Z" stroke="#0E141A" stroke-width="11"/>
<path d="M242.309 348.5C231.18 341.736 224.937 341.86 213.809 348.5V387.5C213.809 387.5 226.309 404.5 227.809 404.5C229.309 404.5 242.309 387.5 242.309 387.5V348.5Z" fill="#FCE203" stroke="#0E141A" stroke-width="11"/>
<path d="M107.309 358C105.809 362.5 101.809 385.5 102.809 390C110.309 391.5 133.698 381.594 157.309 360.5C162.064 358.255 150.274 323.286 148.932 318.097C148.852 317.788 148.809 317.584 148.809 317.5C148.809 316 108.809 353.5 107.309 358Z" fill="#55B35C" stroke="#0E141A" stroke-width="19"/>
<path d="M344.933 357.544C346.433 362.044 350.433 385.044 349.433 389.544C341.933 391.044 318.543 381.137 294.933 360.044C290.178 357.799 301.968 322.83 303.31 317.641C303.39 317.332 303.433 317.128 303.433 317.044C303.433 315.544 343.433 353.044 344.933 357.544Z" fill="#55B35C" stroke="#0E141A" stroke-width="19"/>
<path d="M80.3091 31.5C92.3235 32.917 143.69 81.4569 135.309 77C126.928 72.543 67.7688 77.1389 44.8091 93.5C44.8091 93.5 32.3092 81.5 32.3091 63C32.309 44.5 58.8091 28 80.3091 31.5Z" stroke="#0E141A" stroke-width="11"/>
<path d="M77.8231 59.9282C82.332 60.3138 105.609 75.7228 102.464 74.51C99.319 73.2972 71.4258 79.0478 62.8092 83.5C62.8092 83.5 59.8091 73.5342 59.8091 68.5C59.8091 63.4657 69.7543 58.9758 77.8231 59.9282Z" fill="#0E141A" stroke="#0E141A" stroke-width="11"/>
<path d="M379.741 60.1285C375.232 60.5141 351.955 75.9231 355.1 74.7103C358.245 73.4975 386.139 79.2481 394.755 83.7003C394.755 83.7003 397.755 73.7345 397.755 68.7003C397.755 63.6661 387.81 59.1761 379.741 60.1285Z" fill="#0E141A" stroke="#0E141A" stroke-width="11"/>
<path d="M375.728 31.4722C363.714 32.8892 312.348 81.4291 320.728 76.9722C329.109 72.5153 388.269 77.1111 411.228 93.4722C411.228 93.4722 423.728 81.4722 423.728 62.9722C423.728 44.4722 397.228 27.9722 375.728 31.4722Z" stroke="#0E141A" stroke-width="11"/>
<path d="M131.808 301C134.102 296.703 118.017 278.285 114.309 281C114.309 281 37.0596 355.861 35.8091 361.5C34.5585 367.139 31.4734 375.859 36.309 381.5C39.309 385 52.8091 379.954 54.3091 380C55.8092 380.047 131.808 301 131.808 301Z" fill="#FCE203" stroke="#0E141A" stroke-width="11"/>
<path d="M320.032 300.272C317.738 295.975 333.823 277.557 337.531 280.272C337.531 280.272 414.781 355.133 416.031 360.772C417.282 366.411 420.367 375.13 415.531 380.772C412.531 384.272 399.031 379.226 397.531 379.272C396.031 379.318 320.032 300.272 320.032 300.272Z" fill="#FCE203" stroke="#0E141A" stroke-width="11"/>
<path d="M267.309 390C267.309 374.5 267.309 343.5 267.309 341.5C267.309 339.5 282.635 377.304 285.809 390C286.809 394 281.884 399 277.309 399C272.734 399 267.309 394.5 267.309 390Z" fill="#0E141A" stroke="#0E141A" stroke-width="5"/>
<path d="M188.44 390.576C188.44 375.076 188.44 344.076 188.44 342.076C188.44 340.076 173.114 377.881 169.94 390.576C168.94 394.576 173.865 399.576 178.44 399.576C183.015 399.576 188.44 395.076 188.44 390.576Z" fill="#0E141A" stroke="#0E141A" stroke-width="5"/>
</svg>
